<svg xmlns="http://www.w3.org/2000/svg" enable-background="new 0 0 64 64" viewBox="0 0 64 64" id="tag"><circle cx="32" cy="32" r="32" fill="#ffc42e"></circle><path d="M52.72,11.28c-0.19-0.19-0.46-0.3-0.73-0.28l-17.36,1.13c-0.23,0.01-0.44,0.11-0.6,0.28L11.28,35.16
			C11.1,35.34,11,35.58,11,35.83c0,0.25,0.1,0.49,0.28,0.66l16.23,16.23c0.18,0.18,0.42,0.28,0.66,0.28s0.48-0.09,0.66-0.28
			l22.76-22.76c0.16-0.16,0.26-0.37,0.28-0.6L53,12.01C53.01,11.73,52.91,11.47,52.72,11.28z M50.02,28.88L28.17,50.73l-14.9-14.9
			l21.85-21.85l15.93-1.03L50.02,28.88z"></path><path fill="#ea526c" d="M35.12,13.98L13.27,35.83l14.9,14.9l21.85-21.85l1.03-15.93L35.12,13.98z M31.19,44.86
			c-0.18,0.18-0.42,0.28-0.66,0.28s-0.48-0.09-0.66-0.28L19.14,34.14c-0.37-0.37-0.37-0.96,0-1.33c0.37-0.37,0.96-0.37,1.33,0
			l10.72,10.72C31.55,43.9,31.55,44.5,31.19,44.86z M35.51,40.54c-0.18,0.18-0.42,0.28-0.66,0.28c-0.24,0-0.48-0.09-0.66-0.28
			L23.46,29.82c-0.37-0.37-0.37-0.96,0-1.33c0.37-0.37,0.96-0.37,1.33,0l10.72,10.72C35.88,39.58,35.88,40.17,35.51,40.54z
			 M47.51,22.68c-0.83,0.83-1.93,1.29-3.1,1.29c-1.17,0-2.26-0.46-3.09-1.29c-0.83-0.83-1.29-1.92-1.29-3.09
			c0-1.17,0.46-2.27,1.29-3.1c0.83-0.82,1.92-1.28,3.09-1.28c1.17,0,2.27,0.46,3.1,1.28c0.82,0.83,1.28,1.93,1.28,3.1
			C48.79,20.75,48.33,21.85,47.51,22.68z"></path><path d="M47.51 16.49c-.83-.82-1.93-1.28-3.1-1.28-1.17 0-2.26.46-3.09 1.28-.83.83-1.29 1.93-1.29 3.1 0 1.17.46 2.26 1.29 3.09.83.83 1.92 1.29 3.09 1.29 1.17 0 2.27-.46 3.1-1.29.82-.83 1.28-1.92 1.28-3.09C48.79 18.42 48.33 17.32 47.51 16.49zM46.18 21.35c-.47.47-1.1.73-1.77.73-.67 0-1.29-.26-1.77-.73-.47-.47-.73-1.1-.73-1.77 0-.67.26-1.29.73-1.77.47-.47 1.1-.73 1.77-.73.67 0 1.29.26 1.77.73.47.47.73 1.1.73 1.77C46.91 20.25 46.65 20.88 46.18 21.35zM35.51 40.54c-.18.18-.42.28-.66.28-.24 0-.48-.09-.66-.28L23.46 29.82c-.37-.37-.37-.96 0-1.33.37-.37.96-.37 1.33 0l10.72 10.72C35.88 39.58 35.88 40.17 35.51 40.54zM31.19 44.86c-.18.18-.42.28-.66.28s-.48-.09-.66-.28L19.14 34.14c-.37-.37-.37-.96 0-1.33.37-.37.96-.37 1.33 0l10.72 10.72C31.55 43.9 31.55 44.5 31.19 44.86z"></path></svg>