<svg xmlns="http://www.w3.org/2000/svg"  viewBox="0 0 100 100" width="500px" height="500px"><path fill="#f1bc19" d="M77 12A1 1 0 1 0 77 14A1 1 0 1 0 77 12Z"/><path fill="#e6edb7" d="M50 13A37 37 0 1 0 50 87A37 37 0 1 0 50 13Z"/><path fill="#f1bc19" d="M83 11A4 4 0 1 0 83 19A4 4 0 1 0 83 11Z"/><path fill="#88ae45" d="M87 22A2 2 0 1 0 87 26A2 2 0 1 0 87 22Z"/><path fill="#fbcd59" d="M81 74A2 2 0 1 0 81 78 2 2 0 1 0 81 74zM15 59A4 4 0 1 0 15 67 4 4 0 1 0 15 59z"/><path fill="#88ae45" d="M25 85A2 2 0 1 0 25 89A2 2 0 1 0 25 85Z"/><path fill="#fff" d="M18.5 49A2.5 2.5 0 1 0 18.5 54 2.5 2.5 0 1 0 18.5 49zM79.5 32A1.5 1.5 0 1 0 79.5 35 1.5 1.5 0 1 0 79.5 32z"/><path fill="#bd977c" d="M72.25,40.761v1.637v26.782c0,2.787-2.231,5.068-4.958,5.068H32.685 c-2.727,0-4.958-2.281-4.958-5.068V42.347v-1.586"/><path fill="#472b29" d="M67.292,74.947H32.685c-3.12,0-5.658-2.588-5.658-5.768V40.761h1.4V69.18 c0,2.408,1.91,4.367,4.257,4.367h34.608c2.348,0,4.257-1.959,4.257-4.367V40.761h1.4V69.18 C72.95,72.359,70.412,74.947,67.292,74.947z"/><path fill="#ee3e54" d="M61.768 44.199L61.768 50.617 64.034 48.73 66.3 50.617 66.3 44.199z"/><path fill="#472b29" d="M67,51.63l-2.97-2.273L61,51.613V44h6V51.63z M62,45v4.621l2.038-1.519L66,49.604V45H62z"/><path fill="#f6cca4" d="M29.3,44.3c-1.985,0-3.6-1.847-3.6-4.116V30.7h48.6v9.483c0,2.27-1.615,4.116-3.6,4.116H29.3z"/><path fill="#472b29" d="M73.6,31.4v8.784c0,1.884-1.301,3.417-2.9,3.417H29.3c-1.599,0-2.9-1.533-2.9-3.417V31.4H73.6 M74.748,30H25.412C25.185,30,25,30.208,25,30.461v9.722C25,42.833,26.935,45,29.3,45h41.4c2.365,0,4.3-2.167,4.3-4.816v-9.902 C75,30.126,74.887,30,74.748,30L74.748,30z"/><path fill="#472b29" d="M64.035,48.875c-0.133,0-0.242-0.109-0.242-0.242v-3.999c0-0.133,0.109-0.242,0.242-0.242 c0.133,0,0.242,0.109,0.242,0.242v3.999C64.277,48.766,64.168,48.875,64.035,48.875z"/><g><path fill="#472b29" d="M66.008,49.043c-0.03,0-0.061-0.011-0.086-0.031l-1.831-1.534c-0.057-0.047-0.065-0.132-0.017-0.189 c0.046-0.058,0.132-0.063,0.189-0.017l1.831,1.534c0.057,0.047,0.065,0.132,0.017,0.189C66.085,49.025,66.047,49.043,66.008,49.043 z"/></g><g><path fill="#472b29" d="M66.008,47.667c-0.03,0-0.061-0.011-0.086-0.031l-1.831-1.534c-0.057-0.047-0.065-0.132-0.017-0.189 c0.046-0.057,0.132-0.063,0.189-0.017l1.831,1.534c0.057,0.047,0.065,0.132,0.017,0.189C66.085,47.651,66.047,47.667,66.008,47.667 z"/></g><g><path fill="#472b29" d="M65.188,71H34.813C32.71,71,31,69.29,31,67.188V50.5c0-0.276,0.224-0.5,0.5-0.5s0.5,0.224,0.5,0.5 v16.688C32,68.738,33.262,70,34.813,70h30.375C66.738,70,68,68.738,68,67.188V62.5c0-0.276,0.224-0.5,0.5-0.5s0.5,0.224,0.5,0.5 v4.688C69,69.29,67.29,71,65.188,71z"/></g><g><path fill="#472b29" d="M66.241,46.598c-0.03,0-0.061-0.011-0.086-0.031l-1.831-1.534c-0.057-0.047-0.065-0.132-0.017-0.189 c0.047-0.057,0.132-0.065,0.189-0.017l1.831,1.534c0.057,0.047,0.065,0.132,0.017,0.189C66.318,46.581,66.279,46.598,66.241,46.598 z"/></g><g><path fill="#472b29" d="M49.5,70.75c-0.276,0-0.5-0.224-0.5-0.5v-9.978c0-0.276,0.224-0.5,0.5-0.5s0.5,0.224,0.5,0.5v9.978 C50,70.526,49.776,70.75,49.5,70.75z"/></g><g><path fill="#472b29" d="M49.5,50.5c-0.276,0-0.5-0.224-0.5-0.5v-2.75c0-0.276,0.224-0.5,0.5-0.5s0.5,0.224,0.5,0.5V50 C50,50.276,49.777,50.5,49.5,50.5z"/></g><g><path fill="#472b29" d="M68.5,60c-0.276,0-0.5-0.224-0.5-0.5v-3c0-0.276,0.224-0.5,0.5-0.5s0.5,0.224,0.5,0.5v3 C69,59.776,68.776,60,68.5,60z"/></g><g><path fill="#fdfcee" d="M54.022,54.625h-9.793c-0.95,0-1.728-0.913-1.728-2.031l0,0c0-1.117,0.777-2.031,1.728-2.031h9.793 c0.95,0,1.728,0.913,1.728,2.031l0,0C55.75,53.71,54.972,54.625,54.022,54.625z"/></g><g><path fill="#472b29" d="M53.832,55H44.5c-1.378,0-2.5-1.121-2.5-2.5s1.122-2.5,2.5-2.5h9.332c1.378,0,2.5,1.121,2.5,2.5 S55.21,55,53.832,55z M44.5,51c-0.827,0-1.5,0.673-1.5,1.5s0.673,1.5,1.5,1.5h9.332c0.827,0,1.5-0.673,1.5-1.5s-0.673-1.5-1.5-1.5 H44.5z"/></g><g><path fill="#472b29" d="M37.5 65.5c-.276 0-.5-.224-.5-.5v-6c0-.276.224-.5.5-.5S38 58.724 38 59v6C38 65.276 37.777 65.5 37.5 65.5zM46.001 67.5H35c-.276 0-.5-.224-.5-.5s.224-.5.5-.5h11.001c.276 0 .5.224.5.5S46.277 67.5 46.001 67.5zM43.5 65.5c-.276 0-.5-.224-.5-.5v-6c0-.276.224-.5.5-.5S44 58.724 44 59v6C44 65.276 43.777 65.5 43.5 65.5z"/><path fill="#472b29" d="M37.5 57L35 61 40 61zM43.5 57L41 61 46 61z"/></g></svg>