<svg width="119" height="96" viewBox="0 0 119 96" fill="none" xmlns="http://www.w3.org/2000/svg">
<path d="M62.072 63.2381C61.5688 63.1961 61.1661 62.86 60.7971 62.566C59.5221 61.5159 58.2136 60.5078 56.9722 59.3737C56.2005 58.6596 55.4289 58.0715 54.5901 57.5255C54.2881 57.3154 53.9526 57.2314 53.6506 57.0634C53.1138 56.7694 52.6441 56.4333 52.2079 56.0133C51.2349 55.0472 50.1278 54.3331 49.0541 53.577C48.6851 53.325 48.3495 53.031 48.014 52.737C47.0746 51.8549 45.9674 51.3088 44.9944 50.4267C44.1892 49.7126 43.2833 49.1246 42.411 48.5365C42.0754 48.3265 41.9748 48.0745 42.0083 47.6964C42.0083 47.4444 42.0083 47.2344 42.0083 46.9823C42.0083 38.2034 42.0083 29.4665 42.0083 20.6875C42.0083 20.0575 41.9077 19.4274 42.0754 18.7133C42.4781 19.0914 42.7465 19.5114 43.082 19.8054C44.2227 20.8976 45.397 21.8217 46.7391 22.4937C47.1752 22.7037 47.5443 23.0398 47.9469 23.3338C48.2153 23.5858 48.4837 23.8799 48.7857 24.0899C49.2219 24.0899 49.5574 24.3839 49.8593 24.636C51.4363 25.9801 53.0467 27.2822 54.6236 28.5844C54.6572 28.6264 54.6907 28.6684 54.7243 28.7104C54.892 28.9624 55.194 28.8784 55.3618 29.1304C56.838 30.1805 58.3478 31.1046 59.757 32.2388C60.5287 32.8688 61.3674 33.3729 62.1391 34.045C62.5082 34.339 62.9444 34.339 63.3134 33.9189C64.0516 33.1209 64.9574 32.5328 65.6285 31.6087C65.8969 31.2307 66.2324 31.0626 66.5679 30.8946C67.1047 30.6426 67.5744 30.2646 68.0777 29.9285C68.2119 29.7185 68.4468 29.7185 68.5474 29.5085C68.6816 29.4245 68.7823 29.2564 68.9165 29.1724C70.0237 28.3744 71.0973 27.6183 72.0703 26.5682C72.9426 25.6021 73.9492 24.93 74.8886 24.0899C76.2307 22.9138 77.8076 22.1997 79.049 20.8135C79.4852 20.3515 79.8207 19.8054 80.1226 19.2594C80.5252 18.5453 81.0956 18.2513 81.6324 17.8732C81.8673 17.7052 82.1022 17.8732 82.1357 18.2513C82.1357 18.5873 82.1693 18.9233 82.1693 19.2594C82.1022 28.4584 81.968 37.6573 82.0351 46.8983C82.0351 47.4864 82.0015 47.9904 81.4311 48.2005C81.1627 48.2845 80.9614 48.6625 80.7266 48.9145C80.5923 49.0826 80.391 49.1246 80.2233 49.2926C79.3509 49.9227 78.4786 50.5527 77.7069 51.3508C77.2037 51.8969 76.5662 52.1489 76.0294 52.6529C75.761 52.905 75.4254 53.115 75.157 53.451C74.9222 53.7451 74.5531 53.8291 74.2847 54.0391C73.4795 54.6272 72.6742 55.1732 71.9361 55.9293C71.0973 56.7694 70.1243 57.2314 69.2185 57.9455C68.3797 58.6176 67.6751 59.4997 66.8028 60.0877C65.5614 60.9278 64.6219 62.23 63.4476 63.1121C63.347 63.1961 63.2463 63.1961 63.1457 63.2381C62.7431 63.4901 62.4075 63.4481 62.072 63.2381Z" fill="#010101"/>
<path d="M18.4218 77.8976C17.3481 79.0317 16.3416 80.2499 15.4357 81.552C14.8653 82.3501 14.3285 83.1482 13.5568 83.6102C13.1542 83.8623 12.8858 84.3243 12.6174 84.7444C12.349 85.2064 12.1141 85.6264 11.7115 86.0465C12.0135 86.3405 12.3154 86.2565 12.5838 86.2565C15.6035 86.2565 18.5895 86.2565 21.6091 86.2565C23.2867 86.2565 24.461 87.6847 24.4946 89.7849C24.4946 90.499 24.5281 91.2551 24.2597 91.9691C24.0584 92.5992 23.6893 93.0192 23.2532 93.4393C22.515 94.1114 21.7098 94.3214 20.8039 94.3214C15.2008 94.2794 9.59777 94.2374 3.96115 94.3214C2.58555 94.3634 1.74677 93.6073 1.00864 92.3892C0.538918 91.5911 0.505367 90.625 0.538918 89.7429C0.572469 88.3987 0.975085 87.1806 1.64611 86.0885C2.35069 84.9964 3.05527 83.9043 4.06181 83.1902C4.33022 83.0222 4.56508 82.7281 4.76638 82.4341C5.47096 81.3 6.27619 80.2499 7.24918 79.4518C7.786 78.9897 8.22217 78.3177 8.65834 77.6456C9.29581 76.7215 9.93329 75.8394 10.705 75.1253C11.3424 74.5373 11.9799 73.9492 12.5503 73.2351C12.5838 73.1931 12.6174 73.1511 12.6509 73.0251C12.3825 72.7731 12.0806 72.8571 11.8122 72.8571C8.85964 72.8571 5.90713 72.8571 2.95461 72.8571C1.74677 72.8571 0.438264 71.4709 0.169854 70.0008C0.0691996 69.4547 -0.0650057 68.9087 0.0356483 68.3206C0.236956 66.6404 1.07574 65.6323 2.25004 64.9602C2.45134 64.8342 2.6862 64.8762 2.88751 64.8762C8.82609 64.8762 14.7647 64.8342 20.6697 64.8342C21.6091 64.8342 22.4815 64.9602 23.2867 65.6743C23.8235 66.1784 24.1926 66.8084 24.3268 67.6065C24.5281 68.6986 24.5617 69.7908 24.1255 70.7989C24.0584 70.9669 23.9913 71.2189 23.8906 71.3029C22.9176 72.227 22.2466 73.5712 21.2401 74.4533C20.7368 74.8733 20.3342 75.4614 19.9987 76.0494C19.3948 76.5535 18.9586 77.2676 18.4218 77.8976Z" fill="#010101"/>
<path d="M79.1832 18.2092C79.2503 18.7552 79.1161 19.1333 78.747 19.5953C77.6734 20.7715 76.3649 21.4435 75.2241 22.4516C74.0498 23.5437 72.6742 24.2578 71.4999 25.3919C70.3927 26.4421 69.252 27.4922 68.0441 28.3743C67.1382 29.0463 66.1988 29.5924 65.3936 30.5165C65.1923 30.7685 64.9239 30.9785 64.6555 31.1046C64.1186 31.3566 63.7831 31.8606 63.3805 32.2807C62.9779 32.7007 62.5082 32.8267 62.2398 32.4487C61.5016 31.4826 60.5622 31.1046 59.6563 30.5585C58.5491 29.8864 57.5761 28.9203 56.5025 28.1642C55.7308 27.6182 54.9591 26.9881 54.1874 26.4421C53.4158 25.938 52.7112 25.2659 52.0066 24.6359C51.5369 24.2158 51.0001 23.9218 50.4632 23.7118C50.3626 23.6698 50.2284 23.6698 50.1613 23.5858C48.7521 22.2416 47.0746 21.4435 45.5983 20.2254C45.3635 20.0154 45.0615 19.9314 44.9944 19.5113C45.5312 18.5452 46.4371 18.2932 47.1752 17.7051C48.5173 16.571 49.7922 15.3949 51.0672 14.2188C51.4362 13.8827 51.7717 13.5467 52.2079 13.2947C54.1203 12.2865 55.6637 10.6064 57.2406 9.0522C57.9452 8.38013 58.6833 7.79207 59.4214 7.162C60.2602 6.65795 61.0319 5.81786 62.072 6.11189C63.0114 6.2379 63.6154 7.12 64.3535 7.75006C65.4271 8.63216 66.6014 9.30423 67.5409 10.3963C68.279 11.1524 69.0507 11.8245 69.923 12.3286C70.594 12.9586 71.4999 13.0006 72.2045 13.5467C74.1505 15.0588 76.0629 16.571 78.1766 17.7051C78.4786 17.8731 78.8812 17.9151 79.1832 18.2092Z" fill="#1410E1"/>
<path d="M90.3652 78.8125C88.4864 78.0144 86.9766 79.3585 86.2049 81.3747C86.0707 81.7108 86.1042 82.0888 86.1042 82.4668C86.1042 85.2811 86.1042 88.0954 86.1042 90.9517C86.1042 91.4558 86.0707 91.9599 86.0371 92.4639C86.0036 93.052 85.7352 93.43 85.4332 93.8081C84.628 94.8582 83.6214 94.9422 82.5478 94.8582C81.7761 94.7742 81.1722 94.3961 80.6689 93.64C80.3669 93.22 80.2998 92.7999 80.2998 92.2959C80.2998 89.3556 80.2998 86.3733 80.2998 83.4329C80.2998 82.4248 80.2327 81.4167 79.7295 80.6186C79.0584 79.5265 78.2197 78.6444 77.1125 78.5184C75.6027 78.3924 73.8244 79.6525 73.7238 82.0468C73.6902 83.3489 73.6902 84.6511 73.6902 85.9952C73.6902 87.8014 73.6902 89.6076 73.6902 91.4558C73.6902 93.262 72.885 94.4381 71.4423 94.8162C70.7042 95.0262 69.9996 94.8162 69.295 94.7321C69.0266 94.6901 68.9931 94.3961 68.7917 94.3121C68.624 94.1861 68.4562 94.1021 68.322 93.8921C68.1878 93.8081 68.0872 93.64 67.9865 93.514C67.6846 93.052 67.651 92.5059 67.651 91.9599C67.651 89.0615 67.651 86.1212 67.651 83.2229C67.651 81.8788 67.8523 80.6186 68.2214 79.3165C68.5569 78.0984 69.0266 77.0063 69.5634 75.9141C70.0667 74.906 70.7713 74.15 71.5429 73.5199C71.8785 73.2259 72.2475 72.9318 72.583 72.6798C73.6231 71.8817 74.6968 71.3357 75.9046 71.2096C77.5151 71.0416 79.0584 71.4197 80.5011 72.1757C81.3399 72.5958 82.0445 73.3939 82.682 74.234C83.051 74.738 83.0846 74.738 83.4872 74.234C84.1582 73.3519 84.8964 72.5538 85.8358 72.1757C87.2785 71.5457 88.7548 70.9576 90.3317 71.2096C90.8014 71.4617 91.3382 71.2096 91.8079 71.5877C92.8145 72.0497 93.7204 72.7218 94.6263 73.3519C94.6934 73.3939 94.794 73.4359 94.8276 73.5199C95.0289 74.402 95.6663 74.822 96.1361 75.4101C96.9748 76.3762 97.411 77.6783 97.7801 78.9385C97.9143 79.4425 98.0485 79.9466 98.1491 80.4506C98.3169 81.2067 98.4511 82.0048 98.4511 82.8029C98.4511 85.7432 98.4511 88.7255 98.4511 91.6658C98.4511 92.926 98.082 93.8921 97.0755 94.3961C96.8742 94.4801 96.7735 94.9002 96.4716 94.7742C95.8677 95.0262 95.2973 95.0682 94.6933 94.7742C93.3848 94.6061 92.6132 93.556 92.5796 91.9179C92.5461 89.8596 92.5796 87.8434 92.5796 85.7852C92.5796 84.5671 92.5461 83.3909 92.479 82.1728C92.4119 80.7867 91.8079 79.8206 90.8685 79.1905C90.7007 79.0225 90.4994 79.0225 90.3652 78.8125Z" fill="#010101"/>
<path d="M46.3364 86.4245C46.4371 86.9706 46.068 87.3486 45.9338 87.7686C45.4306 89.2388 44.726 90.5829 43.8536 91.7171C43.2833 92.4731 42.5116 92.9772 41.7399 93.3972C41.5051 93.5233 41.2702 93.6913 41.0353 93.8173C39.5591 94.4894 38.0828 94.8674 36.5395 94.4054C36.4724 94.3634 36.3717 94.3213 36.3046 94.3633C35.2645 94.4894 34.3586 93.8173 33.4527 93.3552C31.8423 92.5152 30.6009 91.129 29.8292 89.0288C29.3595 87.7266 28.9904 86.4245 28.6549 85.0804C28.42 84.1983 28.4536 83.2322 28.4536 82.3081C28.42 79.5778 28.4536 76.8475 28.42 74.1592C28.42 73.4031 28.5207 72.689 28.8898 72.101C29.2588 71.5129 29.6614 71.0509 30.3325 71.1349C31.0035 71.2189 31.6745 71.1349 32.3455 71.1349C33.3856 71.1769 34.2244 72.227 34.258 73.5291C34.258 76.6375 34.2244 79.7038 34.2915 82.8121C34.3251 84.7443 35.1639 86.2565 36.5395 86.9706C37.8815 87.6846 39.9617 87.0966 40.6327 84.7863C40.9011 83.8622 41.0353 82.9381 41.0353 81.93C41.0353 79.1997 41.0353 76.4694 41.0353 73.7812C41.0353 72.395 41.2366 72.143 42.2432 71.5549C43.3168 70.9248 44.4576 71.1349 45.5648 71.2189C46.3029 71.2609 46.9404 72.521 46.9404 73.5711C46.9404 76.1334 46.9068 78.6957 46.9739 81.2159C47.0075 82.6441 46.7726 83.9882 46.6384 85.3744C46.4707 85.7104 46.5042 86.0885 46.3364 86.4245Z" fill="#010101"/>
<path d="M107.963 93.9583C106.788 93.4123 105.748 92.6562 104.943 91.3541C104.373 90.43 103.802 89.5059 103.366 88.4137C103.131 87.8677 103.064 87.2376 102.863 86.6916C102.158 84.8014 102.561 82.8271 102.527 80.8529C102.527 80.3069 102.796 79.8868 102.93 79.3828C103.333 77.7026 104.004 76.2324 105.044 74.9723C105.916 73.8802 106.923 73.1241 107.896 72.326C108.399 71.906 108.969 71.696 109.573 71.5279C110.479 71.2759 111.351 71.1499 112.257 71.1499C113.667 71.1499 114.941 71.78 116.216 72.536C116.585 72.7461 116.921 73.0401 117.29 73.2921C117.726 73.6282 118.196 73.9642 118.297 74.6783C118.33 74.9723 118.699 74.9303 118.632 75.3083C118.867 75.8124 118.8 76.2744 118.632 76.7785C118.632 77.4506 118.297 77.8706 117.961 78.2907C117.357 79.0047 116.619 79.3828 115.948 79.8868C115.579 80.1389 115.176 80.1389 114.774 79.6768C113.633 78.3327 111.788 78.1226 110.412 78.9627C109.473 79.5508 108.902 80.3069 108.5 81.399C107.896 82.9952 108.265 84.4233 108.969 85.8095C109.137 86.1455 109.439 86.4395 109.674 86.7336C110.513 87.7417 111.553 87.7417 112.593 87.6577C113.331 87.5736 114.036 87.4056 114.673 86.8176C115.21 86.3135 115.982 86.5655 116.619 86.8596C117.76 87.4056 118.431 88.6238 118.867 89.9679C119.135 90.724 119.001 91.5641 118.431 92.2362C117.693 93.0762 116.921 93.6643 115.982 94.0423C114.572 94.6724 113.13 95.0504 111.653 95.0504C110.848 95.0504 110.077 94.6724 109.271 94.7144C109.07 94.5044 108.802 94.5884 108.6 94.3364C108.399 94.1684 108.131 94.2104 107.963 93.9583Z" fill="#010101"/>
<path d="M67.4402 10.5644C66.8028 9.93429 66.1317 9.38823 65.4272 8.92618C64.7561 8.46413 64.1522 7.91807 63.5483 7.33001C63.1121 6.90996 62.6424 6.53192 62.1056 6.36391C61.5687 5.98587 61.0319 6.11188 60.5287 6.48992C60.126 6.78395 59.757 7.07798 59.3879 7.41402C57.9117 8.75816 56.4689 10.1443 54.9927 11.4885C54.6572 11.8245 54.3217 12.1185 53.9526 12.4126C53.4829 12.7906 53.0467 13.1266 52.5099 13.3787C51.7047 13.7567 51.0672 14.5128 50.3626 15.1428C48.8528 16.529 47.343 17.9151 45.699 19.0073C45.4641 19.1753 45.2628 19.5113 44.9609 19.5113C44.3905 19.0913 43.8872 18.5032 43.3168 18.0832C42.9813 17.8311 42.5787 17.6211 42.3103 17.2431C42.1425 16.991 42.1425 16.697 42.2767 16.403C42.7465 15.6469 43.3504 15.0588 43.9208 14.4288C44.0214 14.1767 44.2563 14.2187 44.3905 14.0087C44.424 14.0087 44.4911 14.0087 44.5247 13.9667C44.6589 13.7987 44.8937 13.7567 45.028 13.5887C46.0345 13.0426 46.9404 12.3285 47.8127 11.4885C48.5844 10.7324 49.3896 9.97629 50.262 9.38823C50.7652 9.05219 51.0672 8.38012 51.6376 8.1281C51.8389 7.96008 52.1073 7.96008 52.275 7.70805C52.4092 7.58204 52.5099 7.45602 52.6105 7.33001C52.6441 7.288 52.6777 7.28801 52.7448 7.28801C52.9125 7.246 53.0132 7.07798 53.0803 6.90996C54.2881 6.11188 55.4624 5.18778 56.6367 4.30569C58.0459 3.21357 59.455 2.07945 60.7635 0.735306C61.0655 0.441274 61.3674 0.105238 61.7701 0.0212293C62.3069 -0.104784 62.6759 0.357265 63.045 0.693301C64.7897 2.20546 66.5343 3.75963 68.4803 4.80974C68.6816 4.93575 68.95 5.06177 69.1178 5.3558C69.4198 5.81785 69.8224 6.11188 70.225 6.2799C71.0302 6.61593 71.6677 7.204 72.3723 7.75005C73.815 8.96818 75.3583 9.97629 76.801 11.1104C77.1366 11.3624 77.4721 11.6145 77.774 11.9085C78.5457 12.6226 79.3845 13.1686 80.2904 13.6307C80.7936 13.8827 81.2298 14.3448 81.6324 14.8488C82.035 15.3949 81.9679 16.1089 81.4311 16.235C80.4581 16.529 79.8207 17.3271 79.1496 18.1252C77.9753 18.1252 77.103 17.2431 76.0965 16.655C74.5196 15.6889 73.1104 14.4288 71.6006 13.3787C71.0973 13.0426 70.5605 13.0006 70.0572 12.6646C69.923 12.5806 69.8559 12.4966 69.7888 12.3285C69.0171 11.7825 68.279 11.1104 67.4402 10.5644Z" fill="#020202"/>
<path d="M53.4158 94.2791C53.3151 94.2791 53.2145 94.2371 53.1138 94.2371C52.9796 94.0691 52.7448 94.0691 52.6106 93.8591C52.4093 93.6491 52.1744 93.523 52.0066 93.271C51.604 92.725 51.3356 92.1369 51.3356 91.3388C51.3692 88.3145 51.4027 85.2902 51.3356 82.2658C51.3021 81.1737 51.5369 80.1236 51.7382 79.1155C51.906 78.3174 52.0737 77.5193 52.3757 76.7633C52.5099 76.3852 52.6441 76.0072 52.8454 75.7551C53.4158 75.0831 53.8855 74.285 54.4559 73.6969C55.6302 72.4368 56.9722 71.4707 58.5156 71.0086C59.2537 70.7986 59.9919 70.7566 60.73 70.6726C62.0049 70.5886 63.1457 71.1767 64.2529 71.7227C64.9239 72.0588 65.4943 72.7728 65.4272 73.949C65.3601 74.747 65.3936 75.5451 65.4272 76.3432C65.4607 76.9313 65.293 77.3933 65.0917 77.8554C64.8904 78.4014 64.5548 78.7375 64.018 78.6955C63.2463 78.6115 62.4411 78.7375 61.6694 78.3594C60.9313 77.9814 60.059 78.1074 59.2873 78.3174C58.6163 78.4854 57.8446 79.7876 57.7104 80.6697C57.1735 83.778 57.6097 86.9283 57.4755 90.0787C57.442 90.6667 57.4755 91.2128 57.442 91.8009C57.4084 92.5569 57.14 93.103 56.6367 93.523C56.3012 93.7751 55.9993 94.0691 55.6637 94.2791C54.9256 94.4471 54.1539 94.6152 53.4158 94.2791Z" fill="#010101"/>
<path d="M77.5392 56.0132C77.8076 56.0132 78.0425 56.0972 78.3445 56.3072C79.2168 56.8953 79.9885 57.6094 80.7937 58.2394C81.666 58.9115 82.5384 59.5836 83.2765 60.5077C83.4778 60.7597 83.8133 60.9277 84.0817 61.0957C85.2225 61.8098 86.2626 62.6499 87.0007 64.036C87.3362 64.6661 87.4033 65.8422 87.0678 66.4303C86.6316 67.2284 86.0948 67.6484 85.2896 67.5644C84.5515 67.4804 83.9475 66.9764 83.3101 66.5563C81.4647 65.3382 79.653 63.952 77.9754 62.3979C77.405 61.8518 76.8011 61.3898 76.1636 61.0117C75.8281 60.8017 75.3584 60.5497 75.4255 59.8356C75.4255 59.7936 75.392 59.7096 75.392 59.6256C74.788 57.6514 75.6604 56.0552 77.3715 56.0132C77.4386 56.0132 77.4386 56.0132 77.5392 56.0132Z" fill="#020202"/>
<path d="M40.6327 41.8578C40.6327 42.6558 40.6327 43.4539 40.6327 44.294C40.6327 44.7561 40.5656 45.0501 40.1294 45.2601C38.5525 46.0582 36.942 46.1842 35.4993 45.0081C34.4592 44.168 33.5869 42.9079 33.5869 41.1437C33.5869 39.7155 34.1908 38.7074 35.0967 38.0774C36.0362 37.4473 37.0091 36.8172 37.7137 35.7671C37.9821 35.3891 38.3177 35.2631 38.6867 35.6411C39.7604 36.7332 40.5991 37.9934 40.5991 39.8415C40.6327 40.5136 40.6327 41.1857 40.6327 41.8578Z" fill="#070B10"/>
<path d="M53.4158 94.2793C54.1539 94.2793 54.9256 94.2793 55.6637 94.2793C54.9256 94.6573 54.1539 94.9934 53.4158 94.2793Z" fill="#8D8D8D"/>
<path d="M18.4218 77.8977C18.7908 77.0576 19.2941 76.3856 20.0658 76.1335C19.5625 76.7216 19.0928 77.4777 18.4218 77.8977Z" fill="#949494"/>
<path d="M113.64 94.2793C114.244 94.2793 114.815 94.2793 115.419 94.2793C114.748 94.8254 114.177 94.8254 113.64 94.2793Z" fill="#7D7D7D"/>
<path d="M110.755 71.0928C110.218 71.1768 109.748 71.0508 109.279 70.7147C109.681 70.5887 110.084 70.6727 110.453 70.7147C110.654 70.7147 110.721 70.8408 110.755 71.0928Z" fill="#ABABAB"/>
<path d="M83.2429 76.3432C83.2429 75.8391 83.2429 75.3771 83.2429 74.873C83.6791 75.3351 83.6791 75.7131 83.2429 76.3432Z" fill="#7C7C7C"/>
<path d="M62.072 63.238C62.4075 63.238 62.743 63.238 63.0786 63.238C62.7766 63.7421 62.4075 63.7841 62.072 63.238Z" fill="#707070"/>
<path d="M48.7858 24.0478C48.4167 23.9218 48.0477 23.8378 47.947 23.2917C48.3161 23.3758 48.618 23.5858 48.7858 24.0478Z" fill="#727478"/>
<path d="M46.3365 86.4246C46.2358 86.0046 46.3029 85.6265 46.6049 85.3745C46.672 85.7946 46.7055 86.1726 46.3365 86.4246Z" fill="#565656"/>
<path d="M55.3617 29.1303C55.0598 29.2143 54.8249 29.1303 54.7242 28.7102C54.9927 28.7102 55.2611 28.6682 55.3617 29.1303Z" fill="#717477"/>
<path d="M42.2767 16.4031C42.2767 16.6971 42.2767 16.9491 42.3103 17.2432C42.1425 17.1172 41.9412 17.0331 41.9748 16.7391C41.9748 16.4871 42.109 16.4031 42.2767 16.4031Z" fill="#808080"/>
<path d="M73.2111 93.8591C73.513 93.7331 73.7143 93.9431 73.8821 94.2371C73.5801 94.3211 73.3117 94.3211 73.2111 93.8591Z" fill="#6E6E6E"/>
<path d="M109.312 78.3176C109.581 78.2336 109.782 78.3176 109.816 78.6956C109.547 78.7797 109.346 78.6957 109.312 78.3176Z" fill="#939393"/>
<path d="M44.4241 14.0089C44.357 14.3449 44.2228 14.4709 43.9543 14.4289C43.9543 14.0509 44.1221 13.9668 44.4241 14.0089Z" fill="#969696"/>
<path d="M52.6106 93.8591C52.8455 93.8171 53.0468 93.9011 53.1139 94.2371C52.8455 94.3632 52.6441 94.2371 52.6106 93.8591Z" fill="#6D6D6D"/>
<path d="M45.0616 13.6307C44.9945 13.9667 44.8268 14.0507 44.5583 14.0087C44.6255 13.6727 44.7932 13.5467 45.0616 13.6307Z" fill="#787878"/>
<path d="M72.5735 93.4812C72.8754 93.3972 73.0432 93.6072 73.211 93.8593C72.9426 93.8593 72.6406 94.0273 72.5735 93.4812Z" fill="#808080"/>
<path d="M52.275 7.75008C52.1744 8.12812 51.9731 8.29614 51.6376 8.17012C51.8389 8.0021 51.9731 7.66607 52.275 7.75008Z" fill="#787879"/>
<path d="M68.5474 29.5083C68.4467 29.7603 68.3125 29.9704 68.0777 29.9284C68.0441 29.4663 68.279 29.5083 68.5474 29.5083Z" fill="#7A7B7F"/>
<path d="M80.1561 49.2924C80.2568 49.0403 80.391 48.8303 80.6594 48.9143C80.5923 49.2924 80.391 49.3764 80.1561 49.2924Z" fill="#5C5C5C"/>
<path d="M68.8829 29.1723C68.8493 29.4243 68.7822 29.6343 68.5138 29.5083C68.5473 29.2143 68.648 29.0883 68.8829 29.1723Z" fill="#7A7B7F"/>
<path d="M52.6105 7.37216C52.6105 7.66619 52.5099 7.7922 52.275 7.7502C52.3086 7.49817 52.3757 7.33015 52.6105 7.37216Z" fill="#787879"/>
<path d="M86.9336 93.061C87.1349 93.103 87.2691 93.1871 87.2691 93.4391C87.0007 93.4811 86.8665 93.3971 86.9336 93.061Z" fill="#7B7B7B"/>
<path d="M87.269 93.4393C87.571 93.3133 87.6381 93.6073 87.7388 93.8594C87.4703 93.9014 87.3361 93.7334 87.269 93.4393Z" fill="#7B7B7B"/>
<path d="M53.0803 6.9519C53.1138 7.28794 52.9796 7.41395 52.7448 7.32994C52.8119 7.16193 52.9125 6.99391 53.0803 6.9519Z" fill="#787879"/>
<path d="M77.5728 34.9691C78.6799 35.8092 79.2503 37.1533 79.351 38.6235C79.4181 39.5476 79.2503 40.6397 78.5793 41.3118C77.707 42.1939 76.8011 42.95 75.7945 43.538C75.1235 43.9161 74.5196 44.5881 73.8486 45.0082C72.7749 45.6802 71.9026 46.7304 70.8625 47.4864C69.3527 48.5786 67.0041 48.3265 65.9975 46.2263C65.2259 44.5881 65.5949 42.6139 66.8699 41.6058C68.0777 40.6817 69.2856 39.7576 70.4934 38.7915C72.2045 37.4054 73.815 35.8092 75.6268 34.5911C76.0965 34.339 76.5998 34.297 77.0695 34.5911C77.2372 34.7171 77.4385 34.8011 77.5728 34.9691Z" fill="#E1A80C"/>
<path d="M77.0694 34.5907C76.5997 34.5907 76.0964 34.5907 75.6267 34.5907C76.1635 34.0026 76.5661 34.0026 77.0694 34.5907Z" fill="#5B4410"/>
<path d="M77.5727 34.9689C77.3379 35.0109 77.1701 34.8429 77.0695 34.5909C77.3379 34.5489 77.5727 34.5069 77.5727 34.9689Z" fill="#5B4410"/>
<path d="M59.3879 7.37192C59.9919 6.44782 60.73 5.90176 61.703 5.98577C61.9043 5.98577 62.072 6.02778 62.1056 6.36381C61.2668 6.2798 60.4616 6.48983 59.8241 7.24591C59.7234 7.37192 59.5557 7.37192 59.3879 7.37192Z" fill="#735610"/>
<path d="M67.4403 10.5645C68.3462 10.9425 69.185 11.4886 69.8224 12.4127C69.7218 12.4127 69.5876 12.4547 69.5205 12.3706C68.8495 11.7406 68.0107 11.3625 67.4403 10.5645Z" fill="#725911"/>
<path d="M39.9617 41.2695C39.9617 41.9416 39.9617 42.6136 39.9617 43.2857C39.9617 43.6218 39.8611 43.7898 39.5591 43.9158C38.7539 44.2518 37.9151 44.2518 37.1099 44.1678C36.1704 44.0838 35.533 43.4537 35.2981 42.2776C35.2645 42.1516 35.2645 42.0256 35.231 41.8996C34.8284 40.4714 34.8284 40.1774 35.6672 39.3373C36.3046 38.7072 37.0428 38.2452 37.7138 37.6571C38.15 37.2791 38.8881 37.5311 39.2571 38.0352C39.7269 38.6652 40.0624 39.3373 39.9617 40.2614C39.9282 40.5974 39.9617 40.9335 39.9617 41.2695Z" fill="#E1A60C"/>
</svg>
